<svg width="2851" height="1114" xmlns="http://www.w3.org/2000/svg" xmlns:xlink="http://www.w3.org/1999/xlink" xml:space="preserve" overflow="hidden"><defs><clipPath id="clip0"><rect x="210" y="242" width="2851" height="1114"/></clipPath><clipPath id="clip1"><rect x="212" y="431" width="654" height="653"/></clipPath><clipPath id="clip2"><rect x="212" y="431" width="654" height="653"/></clipPath><clipPath id="clip3"><rect x="212" y="431" width="654" height="653"/></clipPath></defs><g clip-path="url(#clip0)" transform="translate(-210 -242)"><text fill="#0070C0" fill-opacity="1" font-family="Haettenschweiler,Haettenschweiler_MSFontService,sans-serif" font-style="normal" font-variant="normal" font-weight="500" font-stretch="normal" font-size="527" text-anchor="start" direction="ltr" writing-mode="lr-tb" unicode-bidi="normal" text-decoration="none" transform="matrix(1 0 0 1 847.286 966)">SWEtrainer</text><g clip-path="url(#clip1)"><g clip-path="url(#clip2)"><g clip-path="url(#clip3)"><path d="M423.089 371.394C451.658 381.597 478.867 393.16 501.313 411.526 510.836 419.008 516.278 429.892 516.278 442.135L528.522 547.568C529.202 552.329 527.161 557.09 523.08 559.811 511.516 567.294 499.273 573.415 486.349 577.497L486.349 599.263 504.714 599.263C516.278 594.502 527.841 589.06 538.045 582.258 550.288 574.096 557.09 559.131 555.05 544.167L544.167 441.455C543.486 421.729 534.644 403.363 518.999 391.12 493.831 370.033 463.902 357.109 432.612 346.226L399.282 332.622C396.561 331.261 395.201 329.221 395.201 326.5L395.201 310.175C421.049 289.769 436.013 258.479 436.013 225.149L436.013 200.661C440.095 203.382 444.856 204.062 449.618 204.743L438.054 170.732C436.694 165.971 435.333 161.209 434.653 156.448 429.211 117.676 406.084 90.4677 374.114 73.4625 371.394 72.1021 367.993 72.1021 365.272 74.1427L359.15 78.9041 352.348 69.3812C350.307 66.6604 347.586 63.9396 344.185 63.2594 338.063 61.8989 331.942 61.2187 325.82 61.2187 272.083 61.2187 227.19 103.392 217.667 158.488L217.667 163.25 217.667 174.813C217.667 189.778 214.946 204.062 208.824 217.667L197.26 244.875C197.26 244.875 205.423 242.834 219.027 238.753 222.428 266.642 236.712 291.809 258.479 308.814L258.479 325.82C258.479 328.541 257.119 331.261 254.398 331.942L221.068 345.546C189.778 356.429 159.849 369.353 134.681 390.439 119.036 402.683 109.514 421.049 108.833 440.775L97.2698 544.167C95.2291 559.131 102.031 574.096 114.275 582.258 124.478 589.06 136.042 594.502 147.605 599.263L166.651 599.263 166.651 578.177C153.727 573.415 141.483 567.974 129.92 560.492 125.839 557.771 123.798 553.009 124.478 548.248L136.042 443.496 136.042 442.135C136.042 429.892 142.163 419.008 151.686 411.526 174.133 393.16 201.342 381.597 229.91 371.394L240.794 367.993C260.52 380.236 291.809 387.719 326.5 387.719 361.19 387.719 392.48 380.236 412.886 367.993L423.089 371.394ZM244.875 230.591C291.129 214.946 357.789 187.737 387.719 149.646 393.841 159.169 400.643 168.011 408.125 176.854L408.125 224.469C408.125 269.362 371.394 306.094 326.5 306.094 283.647 306.094 248.276 273.444 244.875 230.591ZM272.083 353.028C280.246 346.906 285.687 336.703 285.687 325.82L285.687 325.139C311.535 336.023 341.464 336.023 367.312 325.139L367.312 325.82C367.312 336.023 372.074 346.226 380.236 353.028 362.551 358.47 344.185 361.19 325.82 360.51 308.134 360.51 289.769 357.789 272.083 353.028Z" fill="#0070C0" fill-rule="nonzero" fill-opacity="1" transform="matrix(1.00153 0 0 1 212 431)"/><path d="M473.425 444.176C473.425 434.653 465.943 427.171 456.42 427.171L456.42 427.171 197.26 427.171C187.737 427.171 180.255 434.653 180.255 444.176L180.255 613.548 128.559 613.548 128.559 622.39C128.559 631.913 136.042 639.396 145.565 639.396L508.115 639.396C517.638 639.396 525.121 631.913 525.121 622.39L525.121 613.548 473.425 613.548 473.425 444.176ZM291.129 556.41 281.606 565.933 243.514 527.841 281.606 489.75 291.129 499.273 262.56 527.841 291.129 556.41ZM316.977 570.695 304.733 565.253 336.703 488.389 348.947 493.831 316.977 570.695ZM371.394 566.613 361.871 557.09 390.439 528.522 361.871 499.953 371.394 490.43 409.485 528.522 371.394 566.613Z" fill="#0070C0" fill-rule="nonzero" fill-opacity="1" transform="matrix(1.00153 0 0 1 212 431)"/></g></g></g></g></svg>